<svg width="600" height="600" viewBox="0 0 600 600" fill="none" xmlns="http://www.w3.org/2000/svg">
<path d="M88 353.55H163V372.15H88V353.55ZM196.15 342.9C188.85 342.3 182.9 341.2 178.3 339.6C173.8 337.9 170.45 336.5 168.25 335.4L174.7 318.15C178.2 319.85 182.35 321.4 187.15 322.8C192.05 324.2 197.2 324.9 202.6 324.9C208.7 324.9 212.85 324.1 215.05 322.5C217.35 320.8 218.5 318.45 218.5 315.45C218.5 313.55 218.05 311.95 217.15 310.65C216.25 309.25 214.95 308 213.25 306.9C211.55 305.8 209.4 304.75 206.8 303.75C204.2 302.65 201.2 301.5 197.8 300.3C194.5 299.1 191.25 297.8 188.05 296.4C184.95 294.9 182.1 293.1 179.5 291C177 288.9 174.95 286.35 173.35 283.35C171.85 280.25 171.1 276.55 171.1 272.25C171.1 268.95 171.55 265.8 172.45 262.8C173.45 259.7 174.95 256.9 176.95 254.4C178.95 251.9 181.55 249.8 184.75 248.1C187.95 246.3 191.75 245 196.15 244.2V228H215.05V243.6C220.25 244.1 224.7 244.85 228.4 245.85C232.2 246.85 235.2 247.85 237.4 248.85L232.75 266.85C229.45 265.45 225.6 264.25 221.2 263.25C216.9 262.25 212.35 261.75 207.55 261.75C202.75 261.75 199.3 262.55 197.2 264.15C195.1 265.75 194.05 267.85 194.05 270.45C194.05 272.05 194.35 273.45 194.95 274.65C195.65 275.75 196.7 276.75 198.1 277.65C199.5 278.55 201.2 279.45 203.2 280.35C205.3 281.15 207.8 282.05 210.7 283.05C215.1 284.65 219.15 286.4 222.85 288.3C226.65 290.2 229.9 292.4 232.6 294.9C235.4 297.3 237.55 300.15 239.05 303.45C240.65 306.75 241.45 310.6 241.45 315C241.45 318 241 321 240.1 324C239.2 326.9 237.7 329.6 235.6 332.1C233.5 334.6 230.75 336.75 227.35 338.55C224.05 340.35 219.95 341.65 215.05 342.45V360.75H196.15V342.9ZM326.104 341.7C322.304 342.8 317.404 343.8 311.404 344.7C305.404 345.7 299.104 346.2 292.504 346.2C285.804 346.2 280.204 345.3 275.704 343.5C271.304 341.7 267.804 339.2 265.204 336C262.604 332.7 260.754 328.8 259.654 324.3C258.554 319.8 258.004 314.85 258.004 309.45V265.5H280.354V306.75C280.354 313.95 281.304 319.15 283.204 322.35C285.104 325.55 288.654 327.15 293.854 327.15C295.454 327.15 297.154 327.1 298.954 327C300.754 326.8 302.354 326.6 303.754 326.4V265.5H326.104V341.7ZM366.134 304.35C366.134 311.25 367.684 316.8 370.784 321C373.884 325.2 378.484 327.3 384.584 327.3C386.584 327.3 388.434 327.25 390.134 327.15C391.834 326.95 393.234 326.75 394.334 326.55V285.9C392.934 285 391.084 284.25 388.784 283.65C386.584 283.05 384.334 282.75 382.034 282.75C371.434 282.75 366.134 289.95 366.134 304.35ZM416.684 341.85C414.684 342.45 412.384 343.05 409.784 343.65C407.184 344.15 404.434 344.6 401.534 345C398.734 345.4 395.834 345.7 392.834 345.9C389.934 346.2 387.134 346.35 384.434 346.35C377.934 346.35 372.134 345.4 367.034 343.5C361.934 341.6 357.634 338.9 354.134 335.4C350.634 331.8 347.934 327.5 346.034 322.5C344.234 317.4 343.334 311.7 343.334 305.4C343.334 299 344.134 293.25 345.734 288.15C347.334 282.95 349.634 278.55 352.634 274.95C355.634 271.35 359.284 268.6 363.584 266.7C367.984 264.8 372.984 263.85 378.584 263.85C381.684 263.85 384.434 264.15 386.834 264.75C389.334 265.35 391.834 266.2 394.334 267.3V231.6L416.684 228V341.85ZM511.411 304.8C511.411 311 510.511 316.7 508.711 321.9C506.911 327 504.311 331.4 500.911 335.1C497.511 338.7 493.411 341.5 488.611 343.5C483.911 345.5 478.611 346.5 472.711 346.5C466.911 346.5 461.611 345.5 456.811 343.5C452.111 341.5 448.061 338.7 444.661 335.1C441.261 331.4 438.611 327 436.711 321.9C434.811 316.7 433.861 311 433.861 304.8C433.861 298.6 434.811 292.95 436.711 287.85C438.711 282.75 441.411 278.4 444.811 274.8C448.311 271.2 452.411 268.4 457.111 266.4C461.911 264.4 467.111 263.4 472.711 263.4C478.411 263.4 483.611 264.4 488.311 266.4C493.111 268.4 497.211 271.2 500.611 274.8C504.011 278.4 506.661 282.75 508.561 287.85C510.461 292.95 511.411 298.6 511.411 304.8ZM488.611 304.8C488.611 297.9 487.211 292.5 484.411 288.6C481.711 284.6 477.811 282.6 472.711 282.6C467.611 282.6 463.661 284.6 460.861 288.6C458.061 292.5 456.661 297.9 456.661 304.8C456.661 311.7 458.061 317.2 460.861 321.3C463.661 325.3 467.611 327.3 472.711 327.3C477.811 327.3 481.711 325.3 484.411 321.3C487.211 317.2 488.611 311.7 488.611 304.8Z" fill="black"/>
</svg>
